<svg xmlns="http://www.w3.org/2000/svg" width="1588.056" height="580.123" viewBox="0 0 1588.056 580.123">
    <defs>
        <linearGradient id="linear-gradient" x1=".5" x2=".5" y1="1.898" y2=".153" gradientUnits="objectBoundingBox">
            <stop offset="0" stop-color="#fff"/>
            <stop offset=".316" stop-color="#b1b1b1"/>
            <stop offset="1"/>
        </linearGradient>
        <style>
            .cls-15,.cls-5,.cls-6{fill-rule:evenodd}.cls-5{fill:#cc6f00}.cls-6{fill:#e89c43}.cls-15{fill:#eee;opacity:0}
        </style>
    </defs>
    <g id="Group_2020" transform="translate(525.547 64.483)">
        <path id="Path_4570" fill="url(#linear-gradient)" fill-rule="evenodd" d="M1628.17 448.088v-74.449h-73.961v74.448h-24.27v-49.631h-64.856v-84.673h-153.525v63.085H1244.7v23.294h-76.763v-49.519h-99.049v-53.1H965.86v74.116h-62.877v33.655h-14.857v-34.583h-35.2v-36.288h-61.372v36.288h-74.287v11.492h-36.773v-42.04H580.8v-13.317h-52.908v13.317h-3.769v57.675H487.35v-91.429h-11.441v-8.883h-44.556v-17.79h-48.269v26.674h-20.517v-8.883H344.75v8.883h-13.772v53.389h-20.3v-47.557H245.7v47.557h-31.12v44.568h-25.5v-18.15h-25.065v18.15h-47.431v43.7H73.452v80.653h1588.056v-80.652z" transform="translate(-599 -13.793)" style="mix-blend-mode:overlay;isolation:isolate" opacity="0.255"/>
        <g id="Group_2019" transform="translate(-175.695 -95.446)">
            <path id="Path_4576" fill="#fefefe" fill-rule="evenodd" d="M597.562 214.108h-38.457L525.554 453.09a2.849 2.849 0 0 0-.53-.033 14.115 14.115 0 0 0-12.831 8.222 17.19 17.19 0 0 0-29.009 12.5 16.887 16.887 0 0 0 3.085 9.779l-.2.4a29.168 29.168 0 0 0-25.794 19.228A21.188 21.188 0 0 0 450.2 500.6c-.464 0-.895 0-1.226-.033l-1.627 12.133a3.954 3.954 0 0 0 4.012 4.609h256.5a5.429 5.429 0 0 0 5.241-4.609l1.393-10.377a29.3 29.3 0 0 0-9.085-1.723 21.28 21.28 0 0 0-10.077 2.586 29.178 29.178 0 0 0-11.207-14.356 17.456 17.456 0 0 0 .731-4.973 17.3 17.3 0 0 0-23.7-16.044 20.574 20.574 0 0 0-32.788-5.7z" opacity="0.5" transform="translate(109.159 93.779)"/>
            <g id="Group_2021" transform="translate(-19.134 -97.055)">
                <path id="Path_4577" fill="#e8bc3e" fill-rule="evenodd" d="M515.162 249.032c-8.167 35.377 2.662 68.232 21.7 97.508 19.042-29.276 29.826-62.131 21.7-97.508z" transform="translate(169.926 171.054)"/>
                <path id="Path_4578" fill="#ff0" fill-rule="evenodd" d="M518.754 247.72c-4.13 18.034 1.376 34.873 11.1 49.786 9.729-14.913 15.234-31.752 11.1-49.786z" transform="translate(176.934 169.2)"/>
                <path id="Path_4579" d="M534.336 233.746s-22.668 5.505-34.185 17.575-3.4 38.131-3.4 38.131c6.15-14.775 29.551-27.579 44.372-23.587z" class="cls-5" transform="translate(143.868 149.447)"/>
                <path id="Path_4580" d="M528.372 245.938c-1.057-3.444-2.112-7.158-3.075-11.013-7.617 2.751-18.355 7.569-25.146 14.73-11.517 12.068-3.4 38.131-3.4 38.131-.642-9.041.367-19.733 6.837-26.522 6.7-7.021 16.612-12.07 24.779-15.326z" class="cls-6" transform="translate(143.868 151.114)"/>
                <path id="Path_4581" d="M538.366 233.746s22.668 5.505 34.185 17.575 3.4 38.131 3.4 38.131c-6.15-14.775-29.551-27.579-44.372-23.587z" class="cls-5" transform="translate(197.014 149.447)"/>
                <path id="Path_4582" d="M536.859 245.938c1.057-3.444 2.066-7.158 3.075-11.013 7.617 2.751 18.309 7.569 25.146 14.73 11.517 12.068 3.4 38.131 3.4 38.131.642-9.041-.367-19.733-6.883-26.522-6.654-7.021-16.566-12.07-24.734-15.326z" class="cls-6" transform="translate(204.485 151.114)"/>
                <path id="Path_4583" fill="#1d3673" fill-rule="evenodd" d="M524.039 245.267c-.734.275-10 8.9-10 8.9l-2.618 12.433h53.227l-2.616-12.434s-9.268-8.628-10.047-8.9z" transform="translate(168.528 165.731)"/>
                <path id="Path_4584" fill="#3b569e" fill-rule="evenodd" d="M512.648 250.781h50.889a1.331 1.331 0 0 1 1.33 1.33 1.331 1.331 0 0 1-1.33 1.33h-50.889a1.322 1.322 0 0 1-1.284-1.33 1.322 1.322 0 0 1 1.284-1.33z" transform="translate(168.447 173.526)"/>
                <path id="Path_4585" fill="#f1f1f1" fill-rule="evenodd" d="M527.882 419.9c-15.051-22.716-27.531-100.769-26.705-152.068 1.284-80.348 41.71-130.134 51.393-139.817 9.683 9.683 50.061 59.469 51.393 139.817.825 51.3-11.7 129.352-26.751 152.068h-49.33z" transform="translate(153.993)"/>
                <path id="Path_4586" fill="#fffefe" fill-rule="evenodd" d="M535.611 209.076a23.224 23.224 0 1 0-23.194-23.194 23.292 23.292 0 0 0 23.194 23.194z" transform="translate(169.936 48.922)"/>
                <path id="Path_4587" fill="#60bfb3" fill-rule="evenodd" d="M550.855 179.1a19.888 19.888 0 0 1-35.116 12.792 32.15 32.15 0 0 0 31.327-24.473 19.759 19.759 0 0 1 3.789 11.681z" transform="translate(174.631 55.696)"/>
                <path id="Path_4588" fill="#65d9c8" fill-rule="evenodd" d="M549.823 172.254a32.15 32.15 0 0 1-31.323 24.473 19.891 19.891 0 1 1 31.327-24.473z" transform="translate(171.875 50.861)"/>
                <path id="Path_4589" d="M545.963 128.018c-6.562 6.516-27.072 31.342-40.151 71.49h80.256c-13.033-40.149-33.589-64.974-40.105-71.49z" class="cls-6" transform="translate(160.6)"/>
                <path id="Path_4590" fill="#fdd000" fill-rule="evenodd" d="M542.98 129.672c-6.1 5.874-25.055 28.4-35.609 64.839h15.6c10.05-31.479 17.392-52.035 20.008-64.839z" transform="translate(162.803 2.338)"/>
                <path id="Path_4591" fill="#fff" fill-rule="evenodd" d="M537.716 359.5c-11.838-28.494-20.969-91.909-20.281-135.226a225.161 225.161 0 0 1 10.508-65.022h-15.1a223.216 223.216 0 0 0-10.417 64.655c-.78 48.593 10.784 122.471 24.688 143.99h14.826a54.737 54.737 0 0 1-4.224-8.4z" transform="translate(155.768 44.154)"/>
                <path id="Path_4592" d="M524.111 234.849c-3.9 19.547-2.063 32.669 0 53.227z" class="cls-6" transform="translate(183.232 151.006)"/>
                <path id="Path_4593" d="M522.771 234.849c3.9 19.547 2.066 32.669 0 53.227z" class="cls-5" transform="translate(184.571 151.006)"/>
            </g>
            <path id="Path_4594" d="M447.347 426.513a3.954 3.954 0 0 0 4.012 4.609H566c0-.331.033-.7.033-1.027a15.251 15.251 0 0 0-15.249-15.251 14.973 14.973 0 0 0-7.559 2.023 32.7 32.7 0 0 0-48.5-23.572 25.624 25.624 0 0 0-1.526-6.2 26.439 26.439 0 0 0-24.765-17.108c-5.172 0-17.008 1.283-21.085 3.869z" class="cls-15" transform="translate(109.159 179.964)"/>
            <path id="Path_4595" d="M592.043 391.291c-14.62 0-27.086 10.775-31.893 25.858a23.754 23.754 0 0 0-16.178-6.563c-10.177 0-19 6.8-23.272 16.675h132.576a15.1 15.1 0 0 0 3.142-.48c2.838-.653 4.974-.5 7.1-4.129s1.393-10.377 1.393-10.377l-.029-37.1c-9.216 1.922-16.775 9.547-19.858 19.593a25.5 25.5 0 0 0-19.924 1.557 29.912 29.912 0 0 0-8.687 6.9c-6.2-7.36-14.818-11.934-24.367-11.934z" class="cls-15" transform="translate(163.744 183.825)"/>
        </g>
    </g>
</svg>
